<svg xmlns="http://www.w3.org/2000/svg" xmlns:osb="http://www.openswatchbook.org/uri/2009/osb" xmlns:svg="http://www.w3.org/2000/svg" id="svg7384" width="16" height="16" version="1.1"><metadata id="metadata90"/><title id="title9167">Gnome Symbolic Icon Theme</title><defs id="defs7386"><linearGradient id="linearGradient7212" osb:paint="solid"><stop id="stop7214" offset="0" style="stop-color:#000;stop-opacity:1"/></linearGradient></defs><g id="layer9" transform="translate(-283.0002,145)" style="display:inline"><path id="rect6029" d="m 284.09395,-145 c -0.60366,0 -1.09375,0.49009 -1.09375,1.09375 l 0,13.8125 c 0,0.60365 0.49009,1.09375 1.09375,1.09375 l 13.8125,0 c 0.60365,0 1.09375,-0.4901 1.09375,-1.09375 l 0,-13.8125 c 0,-0.60366 -0.4901,-1.09375 -1.09375,-1.09375 l -13.8125,0 z m 0,1 13.8125,0 c 0.0669,0 0.0937,0.0268 0.0937,0.0937 l 0,4.90625 -1.09375,0 c -0.20035,-0.58018 -0.7551,-1 -1.40625,-1 -0.82251,0 -1.5,0.6775 -1.5,1.5 0,0.2449 0.0807,0.45035 0.1875,0.65625 l -3,3 c -0.20078,-0.10112 -0.44584,-0.1562 -0.68745,-0.1562 -0.26731,0 -0.49947,0.0653 -0.71875,0.1875 l -1,-0.9375 c 0.13561,-0.22779 0.21875,-0.46726 0.21875,-0.75 0,-0.8225 -0.6775,-1.5 -1.5,-1.5 -0.8225,0 -1.5,0.6775 -1.5,1.5 0,0.32346 0.13417,0.59637 0.3125,0.84375 l -2.3125,2.375 0,-10.625 c 0,-0.0669 0.0268,-0.0937 0.0937,-0.0937 z m 11.40625,5 c 0.28206,0 0.5,0.21794 0.5,0.5 0,0.28206 -0.21794,0.5 -0.5,0.5 -0.28206,0 -0.5,-0.21794 -0.5,-0.5 0,-0.28206 0.21794,-0.5 0.5,-0.5 z m 1.40625,1 1.09375,0 0,7.90625 c 0,0.0669 -0.0268,0.0937 -0.0937,0.0937 l -13.8125,0 c -0.067,0 -0.0937,-0.0268 -0.0937,-0.0937 l 0,-1.75 3.15625,-3.21875 c 0.11821,0.0305 0.21695,0.0625 0.34375,0.0625 0.17136,0 0.34732,-0.0393 0.5,-0.0937 l 1.125,1.03125 c -0.0698,0.17026 -0.125,0.36715 -0.125,0.5625 0,0.8225 0.6775,1.5 1.5,1.5 0.8225,0 1.5,-0.6775 1.5,-1.5 0,-0.21591 -0.0431,-0.44059 -0.125,-0.625 l 3,-3.03125 c 0.1963,0.0949 0.39511,0.15625 0.625,0.15625 0.64087,0 1.1983,-0.42761 1.40625,-1 z m -9.40625,1 c 0.28206,0 0.5,0.21794 0.5,0.5 0,0.28206 -0.21794,0.5 -0.5,0.5 -0.28206,0 -0.5,-0.21794 -0.5,-0.5 0,-0.28206 0.21794,-0.5 0.5,-0.5 z m 3,3 c 0.28206,0 0.5,0.21794 0.5,0.5 0,0.28206 -0.21794,0.5 -0.5,0.5 -0.28206,0 -0.5,-0.21794 -0.5,-0.5 0,-0.28206 0.21794,-0.5 0.5,-0.5 z" style="color:#000;font-style:normal;font-variant:normal;font-weight:400;font-stretch:normal;font-size:medium;line-height:normal;font-family:Sans;-inkscape-font-specification:Sans;text-indent:0;text-align:start;text-decoration:none;text-decoration-line:none;letter-spacing:normal;word-spacing:normal;text-transform:none;direction:ltr;block-progression:tb;writing-mode:lr-tb;baseline-shift:baseline;text-anchor:start;display:inline;overflow:visible;visibility:visible;fill:#bebebe;fill-opacity:1;stroke:none;stroke-width:1;marker:none;enable-background:accumulate"/></g></svg>