<svg xmlns="http://www.w3.org/2000/svg" xmlns:svg="http://www.w3.org/2000/svg" xmlns:xlink="http://www.w3.org/1999/xlink" id="svg4292" width="48" height="48" version="1.0"><defs id="defs4294"><linearGradient id="linearGradient5447"><stop style="stop-color:#fff;stop-opacity:1" id="stop5449" offset="0"/><stop style="stop-color:#fff;stop-opacity:0" id="stop5451" offset="1"/></linearGradient><linearGradient id="linearGradient5421"><stop style="stop-color:#c00;stop-opacity:1" id="stop5423" offset="0"/><stop style="stop-color:#c00;stop-opacity:0" id="stop5425" offset="1"/></linearGradient><linearGradient id="linearGradient5413"><stop style="stop-color:#204a87;stop-opacity:1" id="stop5415" offset="0"/><stop style="stop-color:#204a87;stop-opacity:0" id="stop5417" offset="1"/></linearGradient><linearGradient id="linearGradient5401"><stop style="stop-color:#fff;stop-opacity:1" id="stop5403" offset="0"/><stop style="stop-color:#fff;stop-opacity:0" id="stop5405" offset="1"/></linearGradient><linearGradient id="linearGradient5391"><stop style="stop-color:#d3d7cf;stop-opacity:1" id="stop5393" offset="0"/><stop style="stop-color:#e0e3dd;stop-opacity:1" id="stop5395" offset="1"/></linearGradient><radialGradient id="radialGradient5031" cx="605.714" cy="486.648" r="117.143" fx="605.714" fy="486.648" gradientTransform="matrix(-2.774389,0,0,1.969706,112.7623,-872.8854)" gradientUnits="userSpaceOnUse" xlink:href="#linearGradient5060"/><linearGradient id="linearGradient5060"><stop style="stop-color:#000;stop-opacity:1" id="stop5062" offset="0"/><stop style="stop-color:#000;stop-opacity:0" id="stop5064" offset="1"/></linearGradient><radialGradient id="radialGradient5029" cx="605.714" cy="486.648" r="117.143" fx="605.714" fy="486.648" gradientTransform="matrix(2.774389,0,0,1.969706,-1891.633,-872.8854)" gradientUnits="userSpaceOnUse" xlink:href="#linearGradient5060"/><linearGradient id="linearGradient5048"><stop style="stop-color:#000;stop-opacity:0" id="stop5050" offset="0"/><stop style="stop-color:#000;stop-opacity:1" id="stop5056" offset=".5"/><stop style="stop-color:#000;stop-opacity:0" id="stop5052" offset="1"/></linearGradient><linearGradient id="linearGradient5027" x1="302.857" x2="302.857" y1="366.648" y2="609.505" gradientTransform="matrix(2.774389,0,0,1.969706,-1892.179,-872.8854)" gradientUnits="userSpaceOnUse" xlink:href="#linearGradient5048"/><linearGradient id="linearGradient5397" x1="27" x2="27.25" y1="40" y2="12.375" gradientTransform="translate(0,-2)" gradientUnits="userSpaceOnUse" xlink:href="#linearGradient5391"/><linearGradient id="linearGradient5407" x1="4" x2="8.125" y1="25" y2="62.875" gradientTransform="translate(0,-2)" gradientUnits="userSpaceOnUse" xlink:href="#linearGradient5401"/><linearGradient id="linearGradient5419" x1="37.33" x2="41.689" y1="24.135" y2="24.135" gradientTransform="translate(0,-2)" gradientUnits="userSpaceOnUse" xlink:href="#linearGradient5413"/><linearGradient id="linearGradient5427" x1="37.33" x2="40.628" y1="33.946" y2="33.946" gradientTransform="translate(0,-2)" gradientUnits="userSpaceOnUse" xlink:href="#linearGradient5421"/><radialGradient id="radialGradient5453" cx="21.92" cy="24.842" r="14.319" fx="21.92" fy="24.842" gradientUnits="userSpaceOnUse" xlink:href="#linearGradient5447"/></defs><g id="layer1"><g style="display:inline" id="g5022" transform="matrix(2.294503e-2,0,0,1.760266e-2,44.55078,39.84629)"><rect style="opacity:.40206185;color:#000;fill:url(#linearGradient5027);fill-opacity:1;fill-rule:nonzero;stroke:none;stroke-width:1;stroke-linecap:round;stroke-linejoin:miter;marker:none;marker-start:none;marker-mid:none;marker-end:none;stroke-miterlimit:4;stroke-dasharray:none;stroke-dashoffset:0;stroke-opacity:1;visibility:visible;display:inline;overflow:visible" id="rect4173" width="1339.633" height="478.357" x="-1559.252" y="-150.697"/><path style="opacity:.40206185;color:#000;fill:url(#radialGradient5029);fill-opacity:1;fill-rule:nonzero;stroke:none;stroke-width:1;stroke-linecap:round;stroke-linejoin:miter;marker:none;marker-start:none;marker-mid:none;marker-end:none;stroke-miterlimit:4;stroke-dasharray:none;stroke-dashoffset:0;stroke-opacity:1;visibility:visible;display:inline;overflow:visible" id="path5058" d="M -219.61876,-150.68038 C -219.61876,-150.68038 -219.61876,327.65041 -219.61876,327.65041 C -76.744594,328.55086 125.78146,220.48075 125.78138,88.454235 C 125.78138,-43.572302 -33.655436,-150.68036 -219.61876,-150.68038 z"/><path style="opacity:.40206185;color:#000;fill:url(#radialGradient5031);fill-opacity:1;fill-rule:nonzero;stroke:none;stroke-width:1;stroke-linecap:round;stroke-linejoin:miter;marker:none;marker-start:none;marker-mid:none;marker-end:none;stroke-miterlimit:4;stroke-dasharray:none;stroke-dashoffset:0;stroke-opacity:1;visibility:visible;display:inline;overflow:visible" id="path5018" d="M -1559.2523,-150.68038 C -1559.2523,-150.68038 -1559.2523,327.65041 -1559.2523,327.65041 C -1702.1265,328.55086 -1904.6525,220.48075 -1904.6525,88.454235 C -1904.6525,-43.572302 -1745.2157,-150.68036 -1559.2523,-150.68038 z"/></g><rect style="opacity:1;color:#000;fill:url(#linearGradient5397);fill-opacity:1;fill-rule:nonzero;stroke:#888a85;stroke-width:.99999976;stroke-linecap:round;stroke-linejoin:round;marker:none;marker-start:none;marker-mid:none;marker-end:none;stroke-miterlimit:4;stroke-dasharray:none;stroke-dashoffset:0;stroke-opacity:1;visibility:visible;display:inline;overflow:visible" id="rect4297" width="41" height="39" x="3.5" y="3.5" rx="1.946" ry="1.818"/><path style="opacity:.57714281;color:#000;fill:url(#radialGradient5453);fill-opacity:1;fill-rule:nonzero;stroke:none;stroke-width:1;stroke-linecap:round;stroke-linejoin:round;marker:none;marker-start:none;marker-mid:none;marker-end:none;stroke-miterlimit:4;stroke-dasharray:none;stroke-dashoffset:0;stroke-opacity:1;visibility:visible;display:inline;overflow:visible" id="path5445" d="M 36.239224 24.842253 A 14.318913 14.318913 0 1 1 7.6013975,24.842253 A 14.318913 14.318913 0 1 1 36.239224 24.842253 z" transform="matrix(1.234568,0,0,1.234568,-3.727587,-6.766535)"/><rect style="opacity:.6;color:#000;fill:none;fill-opacity:1;fill-rule:nonzero;stroke:url(#linearGradient5407);stroke-width:.99999958;stroke-linecap:round;stroke-linejoin:round;marker:none;marker-start:none;marker-mid:none;marker-end:none;stroke-miterlimit:4;stroke-dasharray:none;stroke-dashoffset:0;stroke-opacity:1;visibility:visible;display:inline;overflow:visible" id="rect5399" width="39" height="37" x="4.5" y="4.5" rx=".975" ry=".975"/><path style="fill:none;fill-rule:evenodd;stroke:url(#linearGradient5419);stroke-width:1px;stroke-linecap:butt;stroke-linejoin:miter;stroke-opacity:1" id="path5409" d="M 6.7175144,37.337942 L 13.966335,25.607375 L 20,31 L 27.961048,18.838889 L 36.094616,23.217253 L 41.18897,6.9323501"/><path style="fill:none;fill-rule:evenodd;stroke:url(#linearGradient5427);stroke-width:1px;stroke-linecap:butt;stroke-linejoin:miter;stroke-opacity:1" id="path5411" d="M 6.7175144,37.337942 L 13.953772,32.814166 L 19.875,36.147971 L 27.823485,26.85634 L 35.885669,29.913321 L 41.18897,26.554563"/><path style="opacity:1;color:#000;fill:#204a87;fill-opacity:1;fill-rule:nonzero;stroke:none;stroke-width:1;stroke-linecap:round;stroke-linejoin:round;marker:none;marker-start:none;marker-mid:none;marker-end:none;stroke-miterlimit:4;stroke-dasharray:none;stroke-dashoffset:0;stroke-opacity:1;visibility:visible;display:inline;overflow:visible" id="path5429" d="M 15.375 27.25 A 1.625 1.625 0 1 1 12.125,27.25 A 1.625 1.625 0 1 1 15.375 27.25 z" transform="matrix(1.211539,0,0,1.230769,-2.68991,-7.538455)"/><path style="opacity:1;color:#000;fill:#204a87;fill-opacity:1;fill-rule:nonzero;stroke:none;stroke-width:1;stroke-linecap:round;stroke-linejoin:round;marker:none;marker-start:none;marker-mid:none;marker-end:none;stroke-miterlimit:4;stroke-dasharray:none;stroke-dashoffset:0;stroke-opacity:1;visibility:visible;display:inline;overflow:visible" id="path5431" d="M 15.375 27.25 A 1.625 1.625 0 1 1 12.125,27.25 A 1.625 1.625 0 1 1 15.375 27.25 z" transform="matrix(1.211539,0,0,1.230769,3.31009,-2.538455)"/><path style="opacity:1;color:#000;fill:#204a87;fill-opacity:1;fill-rule:nonzero;stroke:none;stroke-width:1;stroke-linecap:round;stroke-linejoin:round;marker:none;marker-start:none;marker-mid:none;marker-end:none;stroke-miterlimit:4;stroke-dasharray:none;stroke-dashoffset:0;stroke-opacity:1;visibility:visible;display:inline;overflow:visible" id="path5433" d="M 15.375 27.25 A 1.625 1.625 0 1 1 12.125,27.25 A 1.625 1.625 0 1 1 15.375 27.25 z" transform="matrix(1.211539,0,0,1.230769,11.37259,-14.53846)"/><path style="opacity:1;color:#000;fill:#204a87;fill-opacity:1;fill-rule:nonzero;stroke:none;stroke-width:1;stroke-linecap:round;stroke-linejoin:round;marker:none;marker-start:none;marker-mid:none;marker-end:none;stroke-miterlimit:4;stroke-dasharray:none;stroke-dashoffset:0;stroke-opacity:1;visibility:visible;display:inline;overflow:visible" id="path5435" d="M 15.375 27.25 A 1.625 1.625 0 1 1 12.125,27.25 A 1.625 1.625 0 1 1 15.375 27.25 z" transform="matrix(1.211539,0,0,1.230769,19.31009,-10.53845)"/><path style="opacity:1;color:#000;fill:#c00;fill-opacity:1;fill-rule:nonzero;stroke:none;stroke-width:1;stroke-linecap:round;stroke-linejoin:round;marker:none;marker-start:none;marker-mid:none;marker-end:none;stroke-miterlimit:4;stroke-dasharray:none;stroke-dashoffset:0;stroke-opacity:1;visibility:visible;display:inline;overflow:visible" id="path5437" d="M 15.375 27.25 A 1.625 1.625 0 1 1 12.125,27.25 A 1.625 1.625 0 1 1 15.375 27.25 z" transform="matrix(1.211539,0,0,1.230769,-2.68991,-0.538455)"/><path style="opacity:1;color:#000;fill:#c00;fill-opacity:1;fill-rule:nonzero;stroke:none;stroke-width:1;stroke-linecap:round;stroke-linejoin:round;marker:none;marker-start:none;marker-mid:none;marker-end:none;stroke-miterlimit:4;stroke-dasharray:none;stroke-dashoffset:0;stroke-opacity:1;visibility:visible;display:inline;overflow:visible" id="path5439" d="M 15.375 27.25 A 1.625 1.625 0 1 1 12.125,27.25 A 1.625 1.625 0 1 1 15.375 27.25 z" transform="matrix(1.211539,0,0,1.230769,3.31009,2.461545)"/><path style="opacity:1;color:#000;fill:#c00;fill-opacity:1;fill-rule:nonzero;stroke:none;stroke-width:1;stroke-linecap:round;stroke-linejoin:round;marker:none;marker-start:none;marker-mid:none;marker-end:none;stroke-miterlimit:4;stroke-dasharray:none;stroke-dashoffset:0;stroke-opacity:1;visibility:visible;display:inline;overflow:visible" id="path5441" d="M 15.375 27.25 A 1.625 1.625 0 1 1 12.125,27.25 A 1.625 1.625 0 1 1 15.375 27.25 z" transform="matrix(1.211539,0,0,1.230769,11.31009,-6.538455)"/><path style="opacity:1;color:#000;fill:#c00;fill-opacity:1;fill-rule:nonzero;stroke:none;stroke-width:1;stroke-linecap:round;stroke-linejoin:round;marker:none;marker-start:none;marker-mid:none;marker-end:none;stroke-miterlimit:4;stroke-dasharray:none;stroke-dashoffset:0;stroke-opacity:1;visibility:visible;display:inline;overflow:visible" id="path5443" d="M 15.375 27.25 A 1.625 1.625 0 1 1 12.125,27.25 A 1.625 1.625 0 1 1 15.375 27.25 z" transform="matrix(1.211539,0,0,1.230769,19.31009,-3.538455)"/></g></svg>